<?xml version="1.0" encoding="UTF-8"?>
<svg id="logosandtypes_com" data-name="logosandtypes com" xmlns="http://www.w3.org/2000/svg" viewBox="0 0 150 150">
  <defs>
    <style>
      .cls-1 {
        fill: none;
      }
    </style>
  </defs>
  <g id="Layer_3" data-name="Layer 3">
    <g id="Layer_2" data-name="Layer 2">
      <path id="Layer_3-2" data-name="Layer 3-2" class="cls-1" d="M0,0H150V150H0V0Z"/>
    </g>
  </g>
  <path d="M117.81,67.43c7.38-4.15,17.54-8.77,20.77-23.54,3.23-14.77-6.46-29.08-26.77-29.08H31.5L9.81,137.59H84.58c22.62,0,42.92-9.69,47.54-34.62,4.15-19.39-7.38-32.31-14.31-35.54Zm-13.39,3.23c-12.78,14.56-48.46,60.46-48.46,60.46-.92,.92-1.85,.92-2.77,.46-.46-.46-.92-1.38-.46-2.31l14.31-47.54h-24c-1.52-.04-2.51-2.05-1.38-3.23L89.2,19.43c.92-.92,1.85-.92,2.77-.46,.46,.92,.92,1.85,.46,2.77l-13.85,45.69h24c3.47,0,3.04,1.87,1.85,3.23Z"/>
</svg>